<?xml version="1.0" standalone="no"?>
<!DOCTYPE svg PUBLIC "-//W3C//DTD SVG 20010904//EN"
 "http://www.w3.org/TR/2001/REC-SVG-20010904/DTD/svg10.dtd">
<svg version="1.0" xmlns="http://www.w3.org/2000/svg"
 width="70.000000pt" height="70.000000pt" viewBox="0 0 70.000000 70.000000"
 preserveAspectRatio="xMidYMid meet">

<g transform="translate(0.000000,70.000000) scale(0.100000,-0.100000)"
fill="#000000" stroke="none">
<path d="M235 656 c-14 -14 -25 -37 -25 -51 0 -20 5 -25 25 -25 14 0 34 5 44
12 15 9 28 9 59 0 22 -7 58 -12 80 -12 47 0 72 25 72 72 0 24 -4 28 -30 28
-16 0 -30 -5 -30 -11 0 -7 -13 -9 -37 -5 -112 20 -131 19 -158 -8z"/>
<path d="M201 513 c-92 -45 -138 -142 -128 -264 6 -75 22 -113 66 -156 52 -53
87 -63 212 -63 94 0 120 3 156 21 83 40 123 114 123 229 0 115 -40 189 -123
229 -58 28 -252 30 -306 4z m259 -103 c81 -43 80 -216 -2 -262 -14 -7 -58 -12
-108 -13 -97 0 -133 17 -156 72 -40 94 2 198 87 216 37 8 156 0 179 -13z"/>
</g>
</svg>
